<?xml version="1.0" encoding="UTF-8"?>
<svg width="1440px" height="888px" viewBox="0 0 1440 888" version="1.1" xmlns="http://www.w3.org/2000/svg" xmlns:xlink="http://www.w3.org/1999/xlink">
    <!-- Generator: Sketch 60.1 (88133) - https://sketch.com -->
    <title>Scene Wireframe</title>
    <desc>Created with Sketch.</desc>
    <g id="Scene-Wireframe" stroke="none" stroke-width="1" fill="none" fill-rule="evenodd">
        <g id="Scene/Home" transform="translate(256.000000, 48.000000)">
            <g id="Clock" transform="translate(652.794595, 107.729412)">
                <circle id="Clock-Frame" fill="#F2F2F2" cx="53" cy="53" r="53"></circle>
                <circle id="Time" fill-opacity="0.1" fill="#000000" cx="53" cy="11" r="3"></circle>
                <circle id="Time" fill-opacity="0.1" fill="#000000" cx="11" cy="53" r="3"></circle>
                <circle id="Time" fill-opacity="0.1" fill="#000000" cx="95" cy="53" r="3"></circle>
                <circle id="Time" fill-opacity="0.1" fill="#000000" cx="53" cy="95" r="3"></circle>
                <polygon id="Hand" fill="#AFB9C5" points="53 17 55 52 51 52"></polygon>
                <polygon id="Hand" fill="#AFB9C5" transform="translate(62.213203, 62.213203) rotate(135.000000) translate(-62.213203, -62.213203) " points="62.2132034 50.2132034 64.2132034 74.2132034 60.2132034 74.2132034"></polygon>
                <circle id="Time" fill="#C5CFD6" cx="53" cy="53" r="4"></circle>
            </g>
            <g id="Background-Shape-2" opacity="0.345889137" transform="translate(36.681081, 284.188235)">
                <path d="M0.284679455,200.777658 C9.79712546,111.038582 520.180351,-62.1672887 614.931218,22.8317905 C709.682084,107.83087 618.590878,267.351906 420.028059,308.201184 C221.46524,349.050462 -9.22776655,290.516733 0.284679455,200.777658 Z" id="Background-Shape" fill="#F2F2F2" transform="translate(326.289189, 160.729412) scale(-1, 1) translate(-326.289189, -160.729412) "></path>
                <path d="M244.20411,259.086122 C252.935666,182.849266 721.420809,35.7041032 808.393443,107.914146 C895.366077,180.124189 873.351606,332.009648 691.089091,366.712708 C508.826575,401.415768 235.472554,335.322978 244.20411,259.086122 Z" id="Background-Shape" fill="#DDE3E9"></path>
            </g>
            <g id="Hanging-Lamp" transform="translate(44.732432, 0.000000)">
                <g id="Light" transform="translate(0.000000, 187.261705)">
                    <ellipse id="Hanging-Lamp-Light" fill="#F2F2F2" cx="49.5" cy="34.5" rx="42.5" ry="22.5"></ellipse>
                    <path d="M99,50 C99,22.3857625 76.8380951,0 49.5,0 C22.1619049,0 -7.10542736e-15,22.3857625 -7.10542736e-15,50" id="Hanging-Lamp" fill="#DDE3E9"></path>
                </g>
                <rect id="Wire" fill="#DDE3E9" x="47" y="0" width="5" height="194.588235"></rect>
            </g>
            <g id="Hanging-Lamp" opacity="0.7" transform="translate(155.259459, 0.000000)">
                <g id="Light" transform="translate(0.000000, 139.188235)">
                    <ellipse id="Hanging-Lamp-Light" fill="#F2F2F2" cx="37" cy="27.8421053" rx="31.7676768" ry="18.1578947"></ellipse>
                    <path d="M74,40.3508772 C74,18.0657031 57.4345357,0 37,0 C16.5654643,0 -7.10542736e-15,18.0657031 -7.10542736e-15,40.3508772" id="Hanging-Lamp" fill="#DDE3E9"></path>
                </g>
                <rect id="Wire" fill="#DDE3E9" x="35" y="0" width="5" height="162.188235"></rect>
            </g>
            <g id="Lamp" transform="translate(662.789189, 234.354098)">
                <path d="M60,40.8887657 L92.5535779,15.770801 C95.4328879,13.5491587 99.4483929,13.5491587 102.327703,15.770801 L183.595747,78.4762849 C187.522039,81.5057665 189.821622,86.1846353 189.821622,91.1438215 L189.821622,481.645902 L189.821622,481.645902" id="Body" stroke="#CBCBCB" stroke-width="8"></path>
                <rect id="Lamp-Base" fill="#AFB9C5" x="159.821622" y="480.645902" width="59" height="7" rx="3"></rect>
                <g id="Lamp-Top" transform="translate(48.083261, 49.083261) rotate(45.000000) translate(-48.083261, -49.083261) translate(14.583261, 14.583261)">
                    <path d="M33.0303119,1.38390164 C51.2557087,1.38390164 66.0303119,16.1585049 66.0303119,34.3839016 L66.0303119,62.3839016 L66.0303119,62.3839016 L0.03031192,62.3839016 L0.03031192,34.3839016 C0.03031192,16.1585049 14.8049152,1.38390164 33.0303119,1.38390164 Z" id="Lamp" fill="#C5CFD6"></path>
                    <ellipse id="Lamp" fill="#F2F2F2" cx="33.2089288" cy="61.4454002" rx="33" ry="6.5"></ellipse>
                </g>
            </g>
            <g id="Big-Leaf-Plant" transform="translate(38.248649, 483.000000)">
                <g id="Big-Ass-Leaf" transform="translate(22.000000, 0.000000)">
                    <path d="M25.2579539,1.17309307 C28.1225306,0.823121436 31.1799041,0.946659994 33.8438766,2.07736611 C39.5085416,4.48200834 41.1187317,11.1741436 41.0410516,16.6135182 C40.9573065,22.4680411 39.714051,28.8626602 44.1651162,33.5797909 C46.2111822,35.7484553 48.7563294,37.4081152 50.7654292,39.6166003 C52.9121851,41.9766643 54.5966293,44.6770468 55.8438343,47.5768289 C58.1338507,52.9031791 59.2578307,59.1668975 57.163736,64.7542738 C55.3199224,69.6736307 50.6810935,74.1137719 51.6834319,79.7075568 C52.728959,85.5429164 58.61221,90.0040977 62.290444,94.3505245 C66.4531656,99.2693182 70.2859018,105.555987 70.9155339,112.006469 C71.5192882,118.188324 68.8284074,124.440381 64.698769,129.113358 C56.447741,138.450738 44.0451661,143.028231 31.539564,143 C26.2300259,142.987569 20.2185507,142.747768 15.6365623,139.894514 C14.2204324,139.012594 13.4733329,138.02316 12.6314834,136.647706 C11.8766749,135.414323 10.8795787,134.61206 9.72545995,133.739319 C7.18986484,131.822394 5.35871537,129.238844 4.19012177,126.346829 C-0.347779789,115.114023 3.27916675,101.217665 9.6312018,91.2428455 C11.1363537,88.8796069 12.3686453,86.6054629 11.6374364,83.7886216 C10.8743978,80.8481806 8.99901449,78.1960629 7.34025921,75.6685039 C5.70114537,73.1704875 3.82987864,70.7874137 2.54875756,68.0865102 C1.20699289,65.2571214 0.829162714,62.2942757 1.0662375,59.1977452 C1.51180331,53.3811147 4.02273241,48.0134805 7.57766153,43.3356252 C11.0017161,38.8298272 15.0221277,34.5184764 15.0311362,28.6145236 C15.0410288,22.3571379 10.8577315,16.7908073 12.6398779,10.4289791 C13.3778032,7.79466143 14.8599543,5.09183557 17.2485499,3.51252303 C19.5392578,1.99784616 22.5638536,1.50223723 25.2579539,1.17309307 Z" id="leaf" fill="#DDE3E9"></path>
                    <path d="M23.3861597,11.1764309 C23.4398778,10.3360403 24.436749,9.83200515 25.2215077,10.0513011 C26.2544664,10.3400972 26.2346007,11.3052716 26.2073293,12.1651664 C26.1237304,14.8082784 26.5062963,17.3769517 27.1416559,19.9415199 C28.4621824,25.2735426 30.9026929,30.1861254 32.8361895,35.3079558 C34.7680009,40.4254986 35.6748339,45.7092068 34.5415523,51.1242976 C33.4732058,56.2299732 31.7948008,61.2033156 30.7014513,66.3154357 C29.7377524,70.8211129 28.7123306,75.5726024 30.1799208,80.0668063 C31.5921035,84.3928044 34.714245,87.9158566 36.9624576,91.8252937 C41.6165172,99.9180775 43.681267,108.896054 43.9574365,118.135184 C44.0854233,122.425481 43.970168,126.755229 42.9748682,130.963076 C42.4020068,133.385966 41.6321776,136.660394 39.5559237,138.333163 C38.5985099,139.104565 36.9610282,139.371304 36.1552196,138.228946 C35.3986826,137.157504 36.0623713,135.498805 36.3025457,134.356816 C37.3426754,129.413332 37.551926,124.361287 37.302904,119.341696 C37.061891,114.479563 36.4874289,109.625549 34.9571817,104.98201 C33.536907,100.672738 31.379247,96.8021749 28.8398113,93.0324782 C26.2521442,89.1908938 23.562037,85.3411131 22.4928221,80.7892312 C21.4064684,76.1661343 22.2890218,71.4619848 23.4691168,66.9271792 C24.717096,62.1306341 26.3517536,57.4716876 28.0416981,52.8051023 C29.688607,48.2578629 30.2723555,43.9553657 29.3631928,39.1961513 C27.5671855,29.7935298 22.7598022,20.9681166 23.3861597,11.1764309 Z" id="middle-thing" fill="#C5CFD6"></path>
                </g>
                <g id="Big-Ass-Leaf" transform="translate(32.000000, 11.000000)">
                    <path d="M90.8923323,1.58227349 C94.4371815,2.65860484 97.957883,4.39521888 100.484813,7.11827966 C105.857908,12.908958 104.209295,21.6609092 101.243138,28.053245 C98.0504357,34.9333908 93.2122671,41.8490652 95.9396345,49.7432112 C97.193196,53.3723397 99.3011711,56.6591395 100.490327,60.3161304 C101.760821,64.2239944 102.30919,68.2938229 102.239325,72.3720051 C102.109984,79.8624039 100.11754,87.8547607 94.7080978,93.373143 C89.9453006,98.2317101 82.1575199,101.069515 80.3765031,108.20631 C78.5184553,115.651265 83.0609213,123.987774 85.0777737,131.041472 C87.360351,139.024107 88.5328812,148.452761 85.8618992,156.408818 C83.3025511,164.033728 76.8418128,170.027718 69.5281945,173.405772 C54.9151643,180.156033 37.9486721,179.117398 23.2958182,172.578162 C17.0747521,169.801475 10.1506305,166.390577 6.28452896,160.632591 C5.08969654,158.852907 4.73639937,157.294118 4.47600508,155.229521 C4.2426077,153.378223 3.49715739,151.910733 2.60478713,150.278208 C0.643995898,146.69213 -0.138196518,142.68415 0.0197662548,138.65605 C0.634485801,123.011122 12.2336238,108.463743 24.9562471,99.9717321 C27.9707605,97.9599181 30.6181436,95.9115216 31.2493822,92.1998602 C31.9086177,88.325468 31.1107853,84.2133878 30.5011993,80.3613088 C29.8990358,76.5543855 28.9638254,72.7626253 28.8887906,68.9019982 C28.8105393,64.857873 29.9334288,61.1573785 31.8482022,57.6186721 C35.4452563,50.9715661 41.2274568,45.9299031 47.869576,42.2471027 C54.2672493,38.6996981 61.2616135,35.6924899 64.392784,28.7150074 C67.7118026,21.3200057 65.7473551,12.5608727 71.200258,5.96432077 C73.4581719,3.232793 76.6252004,0.8074086 80.2615533,0.182273212 C83.7489295,-0.417345716 87.5584437,0.569996664 90.8923323,1.58227349 Z" id="leaf" fill="#DDE3E9"></path>
                    <path d="M83.6512541,13.8108813 C84.1542014,12.8438162 85.5838278,12.76941 86.3866021,13.4404234 C87.4431996,14.3238303 86.9144837,15.4564117 86.4322458,16.4604357 C84.9502268,19.5466855 84.0522837,22.7891134 83.4520845,26.1591764 C82.2036693,33.1656731 82.4845328,40.2624713 82.0629519,47.3413268 C81.6416462,54.4142215 79.9347993,61.1466733 75.7736201,66.9654284 C71.8504189,72.4517974 67.2831774,77.4617029 63.3273648,82.942599 C59.8407636,87.7732777 56.1532511,92.8627051 55.5155862,98.9541078 C54.9012266,104.817274 56.7068601,110.625805 57.2882412,116.433853 C58.4918732,128.456945 56.2042044,140.171178 51.6883608,151.25723 C49.5910773,156.405033 47.1887071,161.472065 43.8211358,165.93348 C41.8823541,168.502498 39.2672836,171.9767 35.9634293,172.869426 C34.4399139,173.281139 32.3854941,172.738768 32.0415379,170.963598 C31.7180544,169.298235 33.362815,167.681804 34.2417421,166.455303 C38.0470052,161.146218 40.9375702,155.273083 43.2752764,149.198186 C45.5398829,143.313954 47.4103318,137.264567 48.0529422,130.963476 C48.6490797,125.115876 48.1532232,119.401324 47.1581268,113.606123 C46.1442823,107.70051 45.0149464,101.731498 46.1486425,95.7805914 C47.2995951,89.7363667 50.7952573,84.6281193 54.5501475,79.8763654 C58.5214952,74.8502305 62.8729252,70.1897143 67.2930034,65.5491295 C71.6002552,61.0273221 74.5361665,56.238113 75.9655983,50.1255641 C78.7899076,38.049307 77.7906897,25.0782485 83.6512541,13.8108813 Z" id="middle-thing" fill="#C5CFD6"></path>
                </g>
                <g id="Big-Ass-Leaf" transform="translate(0.000000, 57.000000)">
                    <path d="M13.3059765,-1.56319402e-13 C19.200266,-1.56319402e-13 24.3823319,3.12436119 27.9530894,7.55793367 C32.133,12.74806 32.977213,19.0862362 34.674537,25.2719426 C35.5191207,28.3503093 36.9717453,31.4062221 39.5173606,33.4977007 C41.832736,35.3997692 44.7720948,35.7804002 47.5435009,36.7097048 C53.0822347,38.5668654 57.5546724,43.0406377 59.3209572,48.4994874 C61.4757949,55.1581758 59.1934169,61.8733613 59.5864189,68.6215035 C59.9471652,74.818799 66.0576058,78.6852277 70.9738392,81.6560327 C75.8214826,84.5855514 80.1886254,87.3278329 81.6486651,93.0347628 C83.196945,99.0875562 83.7163751,105.843666 81.5719185,111.822941 C78.0015318,121.778741 67.5524967,126.162697 57.4560511,126.842473 C48.2931709,127.459233 36.7719075,126.490815 29.8906637,119.839732 C25.7730402,115.859585 24.2818569,110.293173 24.4668644,104.75501 C24.581799,101.311223 25.2639913,97.8993066 26.1460214,94.571411 C26.7711171,92.2126578 27.6157008,89.864045 27.8563219,87.4267028 C28.4958771,80.9422138 22.5025956,79.6967428 17.4009839,77.9163603 C10.9183036,75.6535796 6.37987122,71.3797201 3.22399048,65.4254344 C0.285002382,59.8814769 -0.948134291,53.6581058 0.813701389,47.5542477 C1.71352782,44.4374919 3.34559866,41.6097404 5.55901596,39.2046306 C6.53336448,38.1460346 7.90664718,37.2630865 8.78608199,36.1508907 C9.60693725,35.1122136 9.42823254,33.766424 9.1453452,32.5499259 C7.83731568,26.930639 3.7619584,22.2775971 2.30451394,16.6684507 C0.988698535,11.6054427 1.76654602,5.30420703 6.395443,2.0378788 C8.39530446,0.626538178 10.8615778,0.0155729143 13.3059765,-1.56319402e-13 Z" id="leaf" fill="#C5CFD6"></path>
                    <path d="M21.3376913,14.6413767 C27.5850069,21.2960229 29.2831027,30.3249745 29.7814609,39.0761511 C30.0606151,43.9833868 29.7700594,49.1593434 31.2118042,53.919181 C32.4453787,57.993092 35.3373275,61.1072854 38.3182819,64.0505403 C44.3188091,69.9754389 51.0107852,75.9988444 52.7658888,84.5736503 C53.7957065,89.6058303 53.1005796,94.8035164 54.523567,99.7802864 C55.8174594,104.303997 58.0955633,108.748395 60.8665085,112.568434 C63.097535,115.644601 66.0041955,117.999712 68.4430245,120.867276 C69.1870678,121.742611 70.2529291,123.031168 69.9458228,124.266849 C69.5864899,125.714031 67.7431162,126.172161 66.4352477,125.944726 C63.385884,125.414889 60.8190633,122.503142 58.8252627,120.38633 C55.9097752,117.290969 53.432328,113.961654 51.4186666,110.227085 C49.1832266,106.079656 47.3832523,101.678717 46.6141992,97.0257156 C45.8160904,92.1985167 46.2133058,87.1677853 44.3908963,82.535065 C41.3242463,74.7399845 33.8860201,70.1398585 28.5081649,64.0643023 C21.8077295,56.4937595 22.8070205,47.0715048 23.4933204,37.7589838 C23.8703073,32.6413346 24.2450873,26.8620233 21.6591415,22.1894658 C20.6719877,20.4058395 18.4711201,18.7428117 18.0466881,16.7154534 C17.6579319,14.857947 19.7797242,12.9808841 21.3376913,14.6413767 Z" id="middle-thing" fill="#AFB9C5"></path>
                </g>
                <path d="M28,181 C28,219.05849 34.211229,239 67.0000931,239 C99.7889571,239 106,219.05849 106,181 L28,181 Z" id="Base" fill="#89C5CC"></path>
            </g>
            <g id="Table" transform="translate(187.310811, 465.000000)">
                <g id="Lamp" transform="translate(23.000000, 0.000000)">
                    <rect id="Lamp-Base" fill="#AFB9C5" x="21" y="144" width="38" height="9" rx="2"></rect>
                    <path d="M38.2168511,71 L42.7831489,71 C43.3012374,86.4188034 45.7068545,101.08547 50,115 L56.5,115 C65.0604136,115 72,121.939586 72,130.5 C72,139.060414 65.0604136,146 56.5,146 L23.5,146 C14.9395864,146 8,139.060414 8,130.5 C8,121.939586 14.9395864,115 23.5,115 L31,115 C35.2931455,101.08547 37.6987626,86.4188034 38.2168511,71 Z" id="Lamp-Body" fill="#DDE3E9"></path>
                    <path d="M4.62222222,1.67861504 C16.0814815,0.559538347 27.5407407,0 39,0 C50.4592593,0 61.9185185,0.559538347 73.3777778,1.67861504 L78,81.1330604 C65,82.3776868 52,83 39,83 C26,83 13,82.3776868 0,81.1330604 L4.62222222,1.67861504 Z" id="Shade" fill="#C5CFD6"></path>
                </g>
                <path d="M125,257 L104,257 L104,175 L21,175 L21,257 L0,257 L0,153 L125,153 L125,257 Z" fill="#F2F2F2"></path>
            </g>
            <g id="Plant" transform="translate(693.932432, 440.000000)">
                <g id="Succulents" transform="translate(13.000000, 0.000000)">
                    <path d="M3.38092413,0.208187006 C12.213925,21.197225 27.2292006,35.7805339 35.1818951,57.6048833 C39.8977667,70.5473636 41.863552,84.6195065 41.9827844,99.0319481 C42.0475621,106.860255 41.9112966,114.693588 41.8746494,122.521895 C41.8390346,130.156002 41.6315393,137.74129 40.9835037,145.326577 C40.3323712,152.952069 39.603299,160.486743 39.2817329,168.159259 C39.0313966,174.137461 38.9170678,181.09097 36.890634,186.544007 C35.2791907,190.880662 31.1834821,191.51603 30.0967128,186.256476 C29.4928087,183.332706 29.5689419,180.068279 29.6355262,177.063384 C29.7209502,173.208101 29.9452206,169.358561 30.0595494,165.503996 C30.5191876,150.036197 29.9232839,134.565527 30.2347849,119.091626 C30.5390596,103.9731 32.4823921,88.871087 30.3320805,73.8534305 C28.5564992,61.4519104 24.045542,50.802498 18.8615156,40.5931767 C13.873887,30.7708195 8.44546012,21.187174 5.07495258,10.0143908 C4.10715753,6.80560332 3.35898744,3.48051124 3,0.0301404047 C3.15691184,-0.0427294746 3.28388655,0.0164997376 3.38092413,0.208187006 Z" id="Thi-Succs!" fill="#C1DEE2"></path>
                    <path d="M0.973588404,41.6169557 C2.7226644,42.8799919 3.70001184,44.7275773 4.88222633,46.55055 C6.35238241,48.8169596 8.08078375,50.8630865 9.55056393,53.131137 C12.6152999,57.8596264 15.3078921,62.8785444 18.1016022,67.7986018 C23.4055915,77.1374401 27.4326388,87.0907728 29.4271794,97.8948808 C31.4946451,109.09156 32.052109,120.648403 32.9193169,132.012037 C33.8391512,144.05621 34.7653759,156.188167 34.8871684,168.278693 C34.9416743,173.695515 35.2345026,179.445837 34.5841907,184.824509 C34.1793433,188.173053 32.6682138,191.026883 29.2614062,191 C22.0249003,190.94238 18.6274903,182.927289 17.2080811,176.353675 C15.118813,166.674363 14.7019367,156.392862 15.0327312,146.494087 C15.432316,134.55821 17.5039166,122.801595 18.4004449,110.911661 C19.3499755,98.3247808 18.8135622,85.9602344 14.4861685,74.1088605 C12.2999174,68.1197961 9.76257314,62.2743052 7.48422591,56.3250312 C6.51402064,53.7919851 5.71936199,51.1900238 4.40896463,48.831317 C2.95121334,46.2076145 1.14161698,43.8259359 -3.0475622e-14,41 C0.324404167,41.2059254 0.649184237,41.4114405 0.973588404,41.6169557 Z" id="Thi-Succs!" fill="#89C5CC"></path>
                    <path d="M84.3341427,16.5176702 C84.5560133,16.345237 84.7781571,16.1728402 85,16 C84.3609397,18.6926575 83.2065589,20.8798938 82.3241537,23.3413066 C81.5309592,25.5541267 81.1289139,28.058225 80.5946654,30.4769505 C79.3401416,36.1577567 77.8904265,41.7105156 76.7055048,47.4397171 C74.3598951,58.7767524 74.8035283,70.9901843 76.3418843,83.5681524 C77.7947507,95.4496261 80.092478,107.312713 81.1873452,119.191609 C82.0949201,129.04307 82.4850091,139.201741 81.6192928,148.601 C81.0309846,154.984369 79.1025548,162.605994 73.8481376,161.961759 C71.3744617,161.658503 70.0840672,158.681129 69.5641892,155.320205 C68.7291114,149.921644 68.5543005,144.245802 68.2287956,138.877693 C67.5023548,126.895908 67.3576487,114.950973 67.2142162,103.092499 C67.078414,91.904007 66.7045185,80.493842 67.4521172,69.5872699 C68.1731866,59.0630547 70.4284885,49.5797393 73.6530782,40.8297246 C75.3514544,36.2198206 76.9696914,31.5020505 78.8779164,27.1084404 C79.7930343,25.0009936 80.9110333,23.1387509 81.826535,21.0329683 C82.5626976,19.3391662 83.148338,17.6010976 84.3341427,16.5176702 Z" id="Thi-Succs!" fill="#C1DEE2"></path>
                    <path d="M3.20880772,76.3018223 C4.16572159,74.6953252 6.27206517,79.9934093 6.59263271,80.6597751 C6.45704992,80.3283084 6.32092787,79.9973172 6.18360206,79.666614 C8.08298767,82.8249267 9.82062484,86.1127294 10.9009829,89.7341519 C11.9700503,93.3191128 12.888301,96.9765376 13.89141,100.586979 C15.7735895,107.360999 18.2016657,113.942756 19.9069626,120.7778 C21.5685818,127.438224 21.9875459,133.985891 21.5852981,140.875198 C21.1672391,148.035491 20.9114736,155.305643 21.3991881,162.462075 C21.632116,165.880018 22.7427231,169.063767 23.5039187,172.354313 C24.2660416,175.648102 24.8662939,178.985809 25.7672782,182.238759 C25.974095,181.814996 26.0004407,183.231705 26,183.339248 C25.99434,184.151918 25.8808641,184.833382 25.6194022,185.603962 C24.9475372,187.585538 23.69062,189.268993 21.7779741,189.815552 C18.3215161,190.803119 15.1122443,187.659032 13.9975999,184.339008 C12.398575,179.575285 11.5174472,174.310953 10.7554023,169.304056 C10.0567643,164.712777 9.89144111,160.094092 10.0990013,155.439587 C10.5078659,146.260651 12.1689639,137.201885 12.618303,128.025744 C13.1073521,118.035719 11.1280407,108.649277 9.47082403,98.9248264 C8.67258323,94.2391921 7.90974363,89.5977685 6.35630439,85.1336672 C5.7273694,83.3259909 4.90736765,81.7307159 4.04759418,80.0614309 C3.55838288,79.1117083 2.56905129,77.4176151 3.20880772,76.3018223 Z" id="Thi-Succs!" fill="#C1DEE2"></path>
                    <path d="M31.2520927,60.6970481 C30.8556379,72.1418193 30.1720216,83.4997745 28.6461885,94.8239462 C27.0889362,106.380282 25.300327,117.896941 23.8019539,129.46349 C22.3433779,140.722452 20.8145443,152.168401 21.0183676,163.584496 C21.1684795,171.99346 19.7741408,186.218697 29.1133695,190.368969 C38.572085,194.57188 40.6010206,176.62338 41.2221153,170.699078 C42.4123367,159.332874 42.027006,147.846855 41.4493767,136.418583 C40.8563654,124.689401 39.8664321,113.01993 38.6395466,101.333567 C37.2768349,88.3528226 36.2076085,75.3135458 35.3494633,62.2958749 C34.92489,55.8569635 34.820295,49.4286586 34.9374389,42.9881759 C35.048171,36.9106701 34.8172608,30.7703111 32.6564941,25 C32.5432773,25.0821019 32.4308129,25.1642038 32.3175887,25.2459129" id="Thi-Succs!" fill="#69A1AC"></path>
                    <path d="M80.0827466,96.9552251 C78.3816844,99.4332953 76.6669438,101.887253 75.0605101,104.512188 C72.1861393,109.208575 69.5869207,114.431593 68.8049844,121.146824 C67.1686355,135.200365 68.4814231,150.378956 68.7982735,164.862679 C68.863082,167.822444 68.4887518,170.692884 69.6553203,173.509621 C70.713019,176.063863 72.6905254,178.01037 74.5755064,178 C78.6108036,177.976942 77.9951288,168.09535 78.0017787,163.745849 C78.0139471,156.122577 77.1591232,148.422037 77.232697,140.805889 C77.3061571,133.260434 77.7650203,125.694154 78.8589994,118.527917 C79.96657,111.274547 81.5885624,104.309427 83.7291347,97.809562 C84.0261843,96.9075488 86.1579416,89.9374968 84.1438969,91.1387197" id="Thi-Succs!" fill="#89C5CC"></path>
                    <path d="M62.262195,22 C59.6091513,22 59.625416,35.2259973 59.5456053,36.9248132 C59.257379,43.055394 59.3250857,49.1876151 59.1427693,55.3194261 C58.7437159,68.7008304 58.2535042,82.1995075 56.243485,95.4263249 C55.1613125,102.546754 53.9066581,109.63561 52.557063,116.701913 C51.2036854,123.788718 49.3869518,130.866913 48.4965519,138.043518 C47.6417075,144.942523 48.1247324,151.977253 48.2419898,158.910292 C48.3592472,165.885155 48.5699324,172.87396 49.4837837,179.787726 C49.7092206,181.494333 49.9736172,183.194789 50.256548,184.891145 C50.4921976,186.304569 50.3548929,188.057511 50.7535682,189.400818 C51.3928102,191.552324 54.1328514,192.256371 55.9779537,191.920134 C60.9704721,191.008604 64.1594958,184.739838 65.8650239,180.159637 C68.0429859,174.311167 69.1985389,167.967363 70.3389619,161.803978 C71.6310631,154.821324 72.3883191,147.732059 72.7434956,140.623111 C73.4655743,126.17518 72.5388625,111.711667 71.5039711,97.310071 C70.928275,89.3006645 70.263312,81.3265219 69.2458201,73.3667309 C68.2324891,65.4409736 66.9324447,57.5504802 66.0859217,49.6013503 C65.4708876,43.8246382 64.8649315,38.0401352 64.4666346,32.2412807 C64.3713156,30.8586094 64.2911267,22 62.262195,22" id="Thi-Succs!" fill="#69A1AC"></path>
                    <path d="M58.9407927,118.138703 C58.5083549,104.252695 52.9265288,43.2589078 51.6565806,26.4671323 C51.3390091,22.2641696 48.2815387,4.76463908 47.8849122,-1.2490009e-14 C46.809561,1.346742 46.901454,22.3094454 46.9132785,27.1261944 C46.9257786,31.8908335 46.3348929,36.5764535 46.0308351,41.3154647 C45.7210339,46.1510074 38.5722965,108.600882 37.6445823,113.247206 C35.7989512,122.490734 34.5638007,131.976445 33.6110862,141.427558 C32.6830341,150.639478 31.2401108,160.357975 32.4820181,169.618161 C32.7674946,171.749969 33.2191894,173.847606 33.9546715,175.805999 C34.749276,177.922003 35.2938774,179.878687 35.9317231,182.09293 C36.9580872,185.659469 38.8148671,188.78948 41.667943,190.261798 C47.51734,193.280756 50.6582574,186.44667 52.2505069,180.496744 C54.7934439,170.994802 56.4255588,161.337812 57.190771,151.358766 C58.0374031,140.318301 59.2870808,129.255197 58.9407927,118.138703" id="Thi-Succs!" fill="#89C5CC"></path>
                </g>
                <g id="Planter" transform="translate(0.000000, 159.000000)">
                    <rect id="Vase" fill="#FFFFFF" x="10" y="0" width="91" height="91" rx="2"></rect>
                    <rect id="Leg" fill="#C5CFD6" x="0" y="10" width="10" height="113" rx="2"></rect>
                    <rect id="Leg" fill="#C5CFD6" x="50" y="10" width="10" height="113" rx="2"></rect>
                    <rect id="Leg" fill="#C5CFD6" x="101" y="10" width="10" height="113" rx="2"></rect>
                </g>
            </g>
        </g>
        <g id="Group-2" transform="translate(368.000000, 337.000000)">
            <g id="Group" transform="translate(0.000000, 71.000000)">
                <g id="Head/Front/Short-2" transform="translate(83.126667, 0.000000)">
                    <g id="Head" stroke-width="1" transform="translate(60.660000, 34.847775)" fill="#D4A181">
                        <path d="M42.8476868,10.2676529 C49.3571909,22.4094292 48.5836926,53.2080515 40.1707386,55.3781256 C36.8157079,56.2435369 29.6685445,54.1236648 22.3943525,49.7361597 L26.96,82.0608899 L0,82.0608899 L9.28087007,38.7706122 C4.10488087,32.6906073 0.601712161,25.2395437 1.18711208,16.89044 C2.87385762,-7.16629948 36.3381828,-1.87412331 42.8476868,10.2676529 Z"></path>
                    </g>
                    <path d="M67.8697088,79.0342146 C64.4859634,63.9697897 54.8462251,53.700876 56.3184444,46.9677224 C57.2999239,42.4789532 59.915861,39.6875453 64.1662557,38.5934986 C66.3645197,29.6942398 73.4543719,25.9090382 85.4358123,27.2378938 C103.407973,29.2311771 114.377179,36.7000566 109.640121,53.134851 C105.285651,53.134851 100.028875,51.5589546 92.7598453,54.2589728 C90.4534117,55.1156777 88.8037827,57.7723947 87.8109585,62.229124 L84.5261129,62.229124 C81.3380319,56.9402048 78.1945636,54.9966714 75.0957081,56.3985236 C71.9968525,57.8003758 71.2924322,61.2054805 72.9824473,66.6138376 L71.3643287,79.0342146 L67.8697088,79.0342146 Z" id="Hair" fill="#191847"></path>
                </g>
                <g id="Bottom/Sitting/Skinny-Jeans-1" transform="translate(0.000000, 211.334895)">
                    <g id="Objects/Seat/Cube" transform="translate(11.233333, 47.213115)" stroke-width="1">
                        <g id="Seat" transform="translate(61.783333, 0.000000)">
                            <polygon id="Seat-Stuff" fill="#C5CFD6" points="31.029434 0 117.812047 0 129.183333 139.391101 0 139.391101"></polygon>
                            <polygon id="Seat-Stuff" fill-opacity="0.1" fill="#000000" points="31.029434 0 57.7200132 0 73.6949057 139.391101 0 139.391101"></polygon>
                        </g>
                    </g>
                    <path d="M289.76753,23.3324083 L290.091723,23.144208 C299.377938,17.938211 314.54387,25.0079936 314.533339,32.8675395 C314.501443,56.6590095 292.804339,168.788122 291.671505,175.876396 C290.53867,182.96467 278.403171,184.83695 277.696481,175.899626 C276.572018,161.678833 274.482906,112.44941 276.573148,89.6629346 C277.436006,80.2566012 278.365263,71.2983497 279.280092,63.3064204 C267.896231,83.8800341 250.287843,113.339001 226.45628,151.681999 L213.51935,145.767316 C223.678319,112.272898 232.008521,88.6267299 238.509956,74.8288121 C249.641992,51.2034272 260.080094,30.9714346 264.473155,23.8448793 C271.38344,12.6348062 283.411895,16.5461628 289.76753,23.3324083 Z" id="Skin" fill="#B28B67"></path>
                    <path d="M234.58685,138.639705 L240.310315,24.540563 C244.449554,4.81192925 279.523041,13.9763369 279.511006,24.5494051 C279.483671,48.5535432 265.0909,131.471511 265.082757,138.623146 L234.58685,138.639705 Z" id="LegLower" fill="#1F28CF" transform="translate(257.048928, 75.786019) rotate(20.000000) translate(-257.048928, -75.786019) "></path>
                    <g id="Accessories/Shoe/Flat-Sneaker" transform="translate(242.078333, 149.508197) rotate(30.000000) translate(-242.078333, -149.508197) translate(207.816667, 127.025761)" fill="#E4E4E4">
                        <path d="M3.10508571,28.2982701 C1.78391746,31.7843094 1.12333333,34.3817806 1.12333333,36.0906838 C1.12333333,38.1177971 1.46079862,41.0758596 2.1357292,44.9648712 C4.48567351,44.9648712 25.6050187,44.9648712 65.4937649,44.9648712 C67.1402157,39.5179473 66.1897888,36.5773283 62.6424843,36.1430143 C59.0951799,35.7087003 56.1483738,35.3165496 53.8020661,34.9665621 L24.2383414,21.7776556 C23.7339709,21.5526469 23.1426923,21.7791144 22.9176837,22.2834848 C22.9137654,22.2922679 22.909974,22.3011071 22.9063107,22.3099995 L20.9650094,27.0224207 L20.9650094,27.0224207 C17.6811332,28.5556746 15.0126429,29.3223015 12.9595385,29.3223015 C11.2482833,29.3223015 8.86815687,28.6128024 5.81915933,27.1938043 L5.81915803,27.1938071 C4.8177311,26.7277447 3.62809599,27.1617435 3.16203364,28.1631704 C3.14140622,28.2074925 3.12241082,28.252556 3.10508571,28.2982701 Z" id="shoe"></path>
                    </g>
                    <g id="Accessories/Shoe/Flat-Sneaker" transform="translate(271.846667, 141.639344)" fill="#E4E4E4">
                        <path d="M3.10508571,28.2982701 C1.78391746,31.7843094 1.12333333,34.3817806 1.12333333,36.0906838 C1.12333333,38.1177971 1.46079862,41.0758596 2.1357292,44.9648712 C4.48567351,44.9648712 25.6050187,44.9648712 65.4937649,44.9648712 C67.1402157,39.5179473 66.1897888,36.5773283 62.6424843,36.1430143 C59.0951799,35.7087003 56.1483738,35.3165496 53.8020661,34.9665621 L24.2383414,21.7776556 C23.7339709,21.5526469 23.1426923,21.7791144 22.9176837,22.2834848 C22.9137654,22.2922679 22.909974,22.3011071 22.9063107,22.3099995 L20.9650094,27.0224207 L20.9650094,27.0224207 C17.6811332,28.5556746 15.0126429,29.3223015 12.9595385,29.3223015 C11.2482833,29.3223015 8.86815687,28.6128024 5.81915933,27.1938043 L5.81915803,27.1938071 C4.8177311,26.7277447 3.62809599,27.1617435 3.16203364,28.1631704 C3.14140622,28.2074925 3.12241082,28.252556 3.10508571,28.2982701 Z" id="shoe"></path>
                    </g>
                    <path d="M317.645386,40.9551601 C317.645386,70.8196721 303.472544,140.481829 303.463575,147.057737 L272.97,147.081176 C277.433315,84.9223206 279.015973,53.5080762 277.717974,52.8384426 C275.770975,51.8339922 197.904191,60.6183013 174.550675,60.6183013 C140.87479,60.6183013 126.943751,39.3671912 125.813333,-4.40536496e-13 L192.524009,-4.40536496e-13 C206.106901,1.454464 276.956514,15.7548554 303.268655,20.6708154 C314.533333,22.775422 317.645386,32.7282558 317.645386,40.9551601 Z" id="Leg-and-Butt" fill="#2B44FF"></path>
                </g>
                <g id="Body/Hoodie" transform="translate(22.466667, 92.177986)">
                    <path d="M76.7325725,104.565686 L100.207309,104.658066 C85.7127425,151.481861 77.8878302,176.326274 76.7325725,179.191303 C74.1332426,185.63762 79.6337742,195.455249 81.9860198,200.731169 C74.3248342,204.161728 75.1411417,191.456969 65.4767623,195.956338 C56.6555648,200.063153 49.9453019,207.504427 39.7536829,201.211471 C38.5006832,200.437789 37.1275997,197.524737 40.445143,195.248341 C48.7103533,189.577008 60.6210221,179.651154 62.230341,176.383982 C64.4249349,171.92861 69.259012,147.989178 76.7325725,104.565686 L76.7325725,104.565686 Z M214.310887,103.656939 L250.143278,129.987917 C259.86176,132.612154 267.981238,135.877149 274.501711,139.782902 C276.04196,141.187385 277.903496,144.031697 271.515711,143.540129 C265.127925,143.048561 258.386842,142.818988 257.505451,144.999292 C256.624061,147.179596 260.489603,149.787001 258.707929,152.728802 C257.520147,154.690003 251.908586,149.772365 241.873246,137.975888 L206.389779,123.251463 L214.310887,103.656939 Z" id="Skin" fill="#B28B67"></path>
                    <path d="M137.864597,10.7662327 L147.395924,8.25871933 C186.01445,36.1545403 205.977731,94.4900645 252.749555,122.225997 L243.306619,136.291684 C166.132486,133.511654 140.846368,62.4381851 137.864597,10.7662327 Z" id="Coat-Back" fill="#E87613" transform="translate(195.307076, 72.275202) rotate(5.000000) translate(-195.307076, -72.275202) "></path>
                    <path d="M101.1,128.149883 C140.047939,128.149883 168.697227,128.149883 187.047863,128.149883 C190.975242,128.149883 190.235202,122.474908 189.667476,119.611285 C183.115227,86.5616108 157.537732,50.9356614 157.537732,3.8902823 L132.746322,0 C112.240641,33.0024245 105.149422,73.6350912 101.1,128.149883 Z" id="Shirt" fill="#DDE3E9"></path>
                    <path d="M130.879602,-8.43769499e-15 C131.717042,-7.54951657e-15 132.48419,0.0524260761 133.181045,0.157278228 L140.946416,0.601112818 C163.213578,76.1201248 169.354728,126.505234 159.369867,151.75644 L159.369867,151.75644 L91.7218448,151.75728 C87.7139229,161.109459 83.8786752,168.978032 80.2161017,175.362998 L80.2161017,175.362998 L61.7833333,175.362998 C60.0485455,119.232156 73.3844114,71.5909911 101.790931,32.4395024 C98.1910848,31.4050205 95.3390841,28.9891782 93.2366667,25.192907 C84.1753624,8.83118589 87.4478234,-0.177153482 97.131484,-3.1382455 C106.815145,-6.09933753 115.450942,-2.39808173e-14 130.879602,-8.43769499e-15 Z" id="Coat-Front" fill="#FF9B21"></path>
                    <path d="M116.826667,151.75644 L91.7218448,151.75728 C96.3972286,140.847628 101.307588,127.919077 106.452924,112.971624 C108.580176,130.78384 112.038168,143.712823 116.826667,151.75644 Z" id="Shade" fill-opacity="0.1" fill="#000000"></path>
                </g>
            </g>
            <g id="Head/Front/Airy" transform="translate(489.500000, 58.500000) scale(-1, 1) translate(-489.500000, -58.500000) translate(413.000000, 0.000000)">
                <g id="Head" stroke-width="1" transform="translate(60.750000, 34.875000)" fill="#B28B67">
                    <path d="M42.9112591,10.2756745 C49.4304211,22.4269365 48.6557752,53.2496203 40.2303391,55.4213898 C36.870312,56.2874819 29.712484,54.1659255 22.4274579,49.7749434 L27,82.125 L0,82.125 L9.29488951,38.8011947 C4.11108382,32.7163862 0.6025955,25.2593962 1.18887338,16.9036356 C2.8781215,-7.17189815 36.392097,-1.87558746 42.9112591,10.2756745 Z"></path>
                </g>
                <path d="M88.2719438,31.1459139 C84.7134219,30.562355 75.131945,30.1611422 73.3649495,30.1614012 C72.235756,30.1614012 71.0120541,30.4193793 70.3432658,29.3825457 C69.7955824,28.5334975 69.9962189,27.0975232 69.832766,26.1122335 C69.6429748,24.9676501 69.3733937,23.8378305 69.100714,22.7108601 C68.3247646,19.5040063 67.1514156,16.453079 65.5096565,13.5886419 C62.4290988,8.21461701 57.916198,4.00511958 52.2188447,1.55562307 C45.9273285,-1.14900234 38.8079608,-1.7683051 32.0405462,-1.2197132 C24.7985243,-0.632787208 18.2428497,1.75791309 11.4051994,4.00770972 C4.88929053,6.15156956 -1.93544876,6.99543756 -8.75037572,5.9485025 C-15.6166883,4.89379701 -20.804833,1.17228217 -26.5964364,-2.35989334 C-32.5254125,-5.97598943 -39.3010901,-8.34104734 -46.3101981,-7.79737671 C-52.8529617,-7.28970904 -58.8831599,-4.58819179 -64.2933732,-0.979348097 C-69.3552485,2.39715994 -73.5319476,6.45953735 -75.8900074,12.177015 C-78.426755,18.3273052 -78.424431,25.0782491 -74.2528963,30.5136604 C-68.2064303,38.3923518 -56.9813738,40.4297569 -47.6426103,40.2272078 C-42.2409182,40.1103924 -36.9358002,39.1243257 -31.8359666,37.3306529 C-25.0347253,34.9383986 -19.1573931,30.8837916 -12.7946083,27.5940533 C-9.80855891,26.0503291 -6.72206217,24.782455 -3.48683105,23.8691712 C-0.347399324,22.9825659 2.74477824,22.5759138 5.58725763,24.4724151 C8.59422279,26.4787385 11.2887424,28.4495769 14.7287416,29.7055363 C18.0287858,30.91047 21.5243021,31.5844248 25.0402177,31.5572283 C31.8809666,31.5043894 38.6243668,29.3729622 45.2683525,27.9452764 C50.6863124,26.781267 56.4833384,25.6211427 62.00691,26.7400837 C64.3117766,27.2070862 67.6784414,28.1711367 68.5109408,30.5664993 C54.4996968,33.1058737 48.9967956,50.4339181 52.9467781,63.1543604 C55.0786376,70.0200476 67.8935382,78.0459634 72.8761401,74.4365679 C76.0327618,72.1499121 74.116368,69.1479471 72.8761401,67.1662301 C70.5010379,63.3711552 69.6884214,58.4962505 74.0833159,55.8540475 C77.8742352,53.5752413 81.8601257,58.9868013 81.9355258,58.980844 C82.9774412,58.8987365 91.9804953,53.8071139 98.1834357,46.3771451 C104.302659,46.7398863 105.231034,42.7050276 103.769883,39.4052715 C102.308733,36.1055154 93.1886998,31.9527428 88.2719438,31.1459139 Z" id="hair" fill="#191847"></path>
            </g>
            <g id="Bottom/Standing/Shorts" transform="translate(498.500000, 346.500000) scale(-1, 1) translate(-498.500000, -346.500000) translate(330.000000, 212.000000)">
                <polygon id="Leg" fill="#997659" points="143.786667 9.9475983e-14 186.058641 138.466535 206.53624 256.223405 222.592091 256.223405 200.954194 9.9475983e-14"></polygon>
                <path d="M128.664047,0 C131.535262,76.0255703 128.15623,115.240936 127.513618,122.14819 C126.871005,129.055443 118.07154,173.842446 97.2398755,258.542169 L114.348585,252.654816 C147.271089,174.972635 158.489905,134.599834 162.265867,124.399236 C166.041829,114.198637 176.070596,72.7322255 192.352169,0 L128.664047,0 Z" id="Leg" fill="#B28B67"></path>
                <g id="Accessories/Shoe/Flat-Sneaker" transform="translate(94.360000, 223.979079)" fill="#E4E4E4">
                    <path d="M3.10524143,28.3331328 C1.78396937,31.8237246 1.12333333,34.4245707 1.12333333,36.1356713 C1.12333333,38.1653115 1.46079862,41.1270612 2.1357292,45.0209205 C4.48567351,45.0209205 25.6050187,45.0209205 65.4937649,45.0209205 C67.1402157,39.5672069 66.1897888,36.6229224 62.6424843,36.1880671 C59.0951799,35.7532117 56.1483738,35.3605721 53.8020661,35.0101483 L24.2389955,21.8050939 C23.7347294,21.5798514 23.1433459,21.8060447 22.9181034,22.3103107 C22.9140583,22.3193666 22.9101483,22.3284821 22.9063744,22.3376543 L20.9650094,27.0561045 L20.9650094,27.0561045 C17.6811332,28.5912696 15.0126429,29.3588521 12.9595385,29.3588521 C11.2485151,29.3588521 8.86880174,28.6486611 5.82039845,27.2282791 L5.82038994,27.2282974 C4.81918028,26.7617908 3.62936117,27.1952533 3.16285458,28.1964629 C3.141967,28.2412916 3.12274941,28.2868795 3.10524143,28.3331328 Z" id="shoe"></path>
                </g>
                <g id="Accessories/Shoe/Flat-Sneaker" transform="translate(199.953333, 223.979079)" fill="#E4E4E4">
                    <path d="M3.10524143,28.3331328 C1.78396937,31.8237246 1.12333333,34.4245707 1.12333333,36.1356713 C1.12333333,38.1653115 1.46079862,41.1270612 2.1357292,45.0209205 C4.48567351,45.0209205 25.6050187,45.0209205 65.4937649,45.0209205 C67.1402157,39.5672069 66.1897888,36.6229224 62.6424843,36.1880671 C59.0951799,35.7532117 56.1483738,35.3605721 53.8020661,35.0101483 L24.2389955,21.8050939 C23.7347294,21.5798514 23.1433459,21.8060447 22.9181034,22.3103107 C22.9140583,22.3193666 22.9101483,22.3284821 22.9063744,22.3376543 L20.9650094,27.0561045 L20.9650094,27.0561045 C17.6811332,28.5912696 15.0126429,29.3588521 12.9595385,29.3588521 C11.2485151,29.3588521 8.86880174,28.6486611 5.82039845,27.2282791 L5.82038994,27.2282974 C4.81918028,26.7617908 3.62936117,27.1952533 3.16285458,28.1964629 C3.141967,28.2412916 3.12274941,28.2868795 3.10524143,28.3331328 Z" id="shoe"></path>
                </g>
                <polygon id="Bottom" fill="#69A1AC" points="138.17 0 156.143333 70.5472423 211.04099 70.5472423 202.855526 0"></polygon>
                <path d="M128.06,-3.55271368e-15 C122.146143,17.7613678 121.02281,41.2771152 124.69,70.5472423 L180.71099,70.5472423 L196.115526,-3.55271368e-15 L128.06,-3.55271368e-15 Z" id="Bottom" fill="#89C5CC"></path>
            </g>
            <g id="Body/Turtle-Neck" transform="translate(497.000000, 198.000000) scale(-1, 1) rotate(8.000000) translate(-497.000000, -198.000000) translate(353.000000, 93.000000)">
                <path d="M68.5910159,75.7456338 L93.2255817,75.8379211 C74.4631117,136.517597 64.5033908,168.288513 63.3464191,171.15067 C60.7432326,177.590523 66.2519252,187.398308 68.6076608,192.668939 C60.9351085,196.096057 61.7526271,183.404038 52.0739088,187.898895 C43.2396235,192.001592 36.5194047,199.435405 26.3126646,193.148759 C25.0578059,192.375853 23.6826852,189.465722 27.0051507,187.191608 C35.2826239,181.525962 47.2109642,171.61006 48.8226709,168.346164 C51.0205208,163.895259 57.6099691,133.028415 68.5910159,75.7456338 L68.5910159,75.7456338 Z M224.429764,103.832461 L256.298656,134.866444 C265.571329,138.814681 273.168964,143.174332 279.09156,147.945396 C280.423463,149.549113 281.873457,152.621918 275.606918,151.246882 C269.34038,149.871846 262.686971,148.706841 261.509187,150.741133 C260.331402,152.775425 263.80184,155.892682 261.625149,158.555047 C260.174021,160.329956 255.293764,154.684317 246.984378,141.618127 L213.844945,122.114764 L224.429764,103.832461 Z" id="Skin" fill="#B28B67"></path>
                <path d="M138.124453,10.9172112 L147.670283,8.41010709 C167.64942,60.942998 249.299512,90.7995258 255.876491,110.515664 C258.288443,117.746093 253.290643,121.945053 256.237774,123.953808 L244.44667,134.260479 C242.096232,131.962792 237.941813,136.905421 228.157675,134.558297 C218.373536,132.211173 143.704906,74.7020795 138.124453,10.9172112 Z" id="Clothes-Back" fill="#DB2721" transform="translate(197.341229, 71.809088) rotate(5.000000) translate(-197.341229, -71.809088) "></path>
                <path d="M125.856335,-5.33644233 L157.154838,-3.15173905 C159.358684,-2.99890134 161.020496,-1.08768476 160.866667,1.11609199 C160.866644,1.11642226 160.866621,1.11675252 160.865607,1.11701338 L160.021737,13.1173849 C158.876273,84.7569813 200.360366,103.020702 191.12317,131.747762 C183.497356,155.463531 110.505747,180.957882 97.875,157.710832 C92.7617065,148.29975 90.4420728,136.917509 90.1792738,124.54257 C86.9517901,134.050583 84.3983059,142.235266 82.5200177,149.097169 C79.2800819,160.933544 66.7195423,162.814989 66.7195423,167.374786 L66.7195423,167.374786 L50.1712087,162.814989 C51.2936432,156.620316 43.4923589,153.603879 45.5840866,139.764438 C54.9561317,77.7564333 80.1369205,32.8085542 121.126453,4.92080115 L121.586523,-1.62475176 C121.741862,-3.82803392 123.652876,-5.48925279 125.856335,-5.33644233 Z" id="Clothes-Front" fill="#FF4133"></path>
            </g>
        </g>
    </g>
</svg>